<mxfile host="app.diagrams.net" modified="2024-07-10T22:12:26.759Z" agent="Mozilla/5.0 (X11; Linux x86_64) AppleWebKit/537.36 (KHTML, like Gecko) Chrome/126.0.0.0 Safari/537.36" version="24.6.4" etag="2o6F2apMdv9XmF0_42B4" type="github">
  <diagram name="Page-1" id="w4DmklgDbc6xixvKzRbn">
    <mxGraphModel>
      <root>
        <mxCell id="0" />
        <mxCell id="1" parent="0" />
      </root>
    </mxGraphModel>
  </diagram>
</mxfile>
